<?xml version="1.0" encoding="UTF-8"?>
<svg id="Layer_2" data-name="Layer 2" xmlns="http://www.w3.org/2000/svg" viewBox="0 0 1517.79 695.08">
  <defs>
    <style>
      .cls-1 {
        fill: #d8a928;
      }

      .cls-2 {
        fill: #21201e;
      }

      .cls-3 {
        fill: #ffc710;
      }
    </style>
  </defs>
  <g id="Layer_1-2" data-name="Layer 1">
    <path class="cls-2" d="M1231.7,560.94c-343.36,44.13-686.67,89.26-1030.02,133.85-38.65,1.5-76.96-3.08-114.86-9.99h-.01c-1.04-.36-67.42-23.32-79.92-79.91-4.14-10.36-4.82-21.08-5.99-31.97,40.69,12.26,81.44,24.28,123.51,31.34,32.37,5.44,68.36,10.57,100.27,8.63,139.76-8.54,292.03-34.69,432.32-52.21,286.28-35.74,572.56-72.41,858.5-110.55,0,0,3.35,10.01-4.02,27.94-25.12,61.05-113.35,57.42-167.78,66.99l-112,15.88Z"/>
    <path class="cls-3" d="M1259.85,414.26c-3.21,4.19-66.65,12.5-69.83,10.52-5.25-3.27-.55-23.37-.3-28.7.38-8.14-2.04-28.74,4.07-33.89,2.36-1.99,49.92-8.61,56.93-9.04,3.31-.21,10.09-.97,12.07,1.86,2.54,3.62-.07,55.5-2.94,59.25ZM1264.59,321.1c-.67,1.36-1.73,2.21-3,2.99-3.94,2.41-53.82,8.35-61.27,8.36-2.26,0-4.34-.52-6.33-1.56l26.7-215.53c2.1-4.42,18.01-5.24,24-5.97,17.15-2.1,43.53-5.69,59.97-6.03,2.95-.06,6.02,1.13,8.68,2.3l-48.75,215.44ZM1517.4,416.1c-5.19-81.08-46.93-202.93-79.56-278.1-25.58-58.94-53.68-123.99-123.74-138-149.38,8.11-298.85,24.2-448.05,37.45-9.88.87-20.02,1.11-29.97,2-184.34,16.37-369.36,31.23-553.46,49.95-22.05,6.09-37.63,36.91-45.48,57.41-39.9,104.25-31.36,306.66-20.44,419.11,1.46,15.01,2.42,33.47,7.98,46.97,139.76-8.54,292.03-34.69,432.32-52.21,286.28-35.74,572.56-72.41,858.5-110.55,3.11-2.18,2.27-28.25,1.9-34.03ZM535.4,505.01c-2.2,4.4-11.56,4.73-16.34,5.65-17.71,3.41-45.81,7.25-63.68,8.34-3.08.19-6.16.49-9.05-.9l12.13-256.88c-11.73-1.61-77.99,10.41-83.11,6.2-4.47-3.67-3.15-29.93-2.9-37.24.21-6.07,2.47-35.3,4.22-37.75,2.64-3.71,10.29-4.51,14.87-5.11,40.71-5.31,84.65-6.39,125.84-10.02,36.91-3.25,79.93-11.19,116.15-11.8,1.99-.04,7.69.92,8.46,2.12,1.97,3.1-3.76,70.39-6.19,73.14l-83.67,11.63-16.73,252.62ZM1177.21,124.04c-29.25,53.93-63.05,106.02-91.53,160.13l1.72,6.48,73.57,130.38c1.75,3.75.17,6.93-3.21,9.04-14.05-.69-75.28,13.89-83.85,10.04-9.84-4.43-37.21-77.87-49.98-88.96-19.59,34.9-38.84,70.41-61.41,103.45l-156.93,20.01c-2.2-.59-4.29-.78-5.49-3.07-3.54-6.73-10.14-48.64-12.1-50.33l-97.5,12.12c-3.95,9.21-13.92,53.95-19.58,57.35l-88.59,10.31,119.81-340.74c28.16-2.64,56.79-7.29,85-8.89,4.61-.26,15.31-1.3,18,1.94l79.89,281.75,86.91-140.99c.41-4.02-2.11-6.89-3.64-10.21-19.57-42.49-57.2-85.82-77.34-128.44-3.86-8.18-4.45-12.36,6.19-13.94,18.55-2.75,47.08-5.34,65.83-6.1,5.2-.21,16.94-1.07,20.99.95,6.88,3.43,35.62,83.02,47.9,92.94l54.56-103.3c11.55-1.67,84.04-11.46,89.03-8.33.74.47,1.92,5.04,1.75,6.41Z"/>
    <path class="cls-1" d="M282.62,89.4c-22.05,6.09-37.63,36.91-45.48,57.41-39.9,104.25-31.36,306.66-20.44,419.11,1.46,15.01,2.42,33.47,7.98,46.97-31.91,1.94-67.9-3.19-100.27-8.63-42.07-7.06-82.82-19.08-123.51-31.34-5.68-52.86,16.56-132.47,33.97-183.82,15.42-45.49,37.85-99.23,59.94-141.86,42.65-82.31,88.39-147.74,187.81-157.84Z"/>
    <path class="cls-2" d="M1175.46,117.63c-4.99-3.13-77.48,6.66-89.03,8.33l-54.56,103.3c-12.28-9.92-41.02-89.51-47.9-92.94-4.05-2.02-15.79-1.16-20.99-.95-18.75.76-47.28,3.35-65.83,6.1-10.64,1.58-10.05,5.76-6.19,13.94,20.14,42.62,57.77,85.95,77.34,128.44,1.53,3.32,4.05,6.19,3.64,10.21l-86.91,140.99-79.89-281.75c-2.69-3.24-13.39-2.2-18-1.94-28.21,1.6-56.84,6.25-85,8.89l-119.81,340.74,88.59-10.31c5.66-3.4,15.63-48.14,19.58-57.35l97.5-12.12c1.96,1.69,8.56,43.6,12.1,50.33,1.2,2.29,3.29,2.48,5.49,3.07l156.93-20.01c22.57-33.04,41.82-68.55,61.41-103.45,12.77,11.09,40.14,84.53,49.98,88.96,8.57,3.85,69.8-10.73,83.85-10.04,3.38-2.11,4.96-5.29,3.21-9.04l-73.57-130.38-1.72-6.48c28.48-54.11,62.28-106.2,91.53-160.13.17-1.37-1.01-5.94-1.75-6.41ZM714.2,359.11c12.32-32.05,18.03-66.92,29.77-99.09,1.01-2.78-.7-3.4,4.19-2.79l21.82,95.72-55.78,6.16Z"/>
    <path class="cls-3" d="M769.98,352.95l-55.78,6.16c12.32-32.05,18.03-66.92,29.77-99.09,1.01-2.78-.7-3.4,4.19-2.79l21.82,95.72Z"/>
    <path class="cls-2" d="M641.99,167.62c1.97,3.1-3.76,70.38-6.18,73.14l-83.68,11.63-16.73,252.62c-2.19,4.4-11.56,4.73-16.33,5.64-17.72,3.41-45.82,7.25-63.68,8.35-3.08.19-6.16.49-9.05-.91l12.13-256.88c-11.73-1.61-78,10.41-83.11,6.2-4.47-3.68-3.15-29.93-2.9-37.25.21-6.07,2.46-35.29,4.21-37.75,2.65-3.71,10.3-4.51,14.87-5.11,40.71-5.31,84.65-6.39,125.85-10.02,36.91-3.25,79.92-11.19,116.14-11.8,1.99-.03,7.69.92,8.46,2.12Z"/>
    <path class="cls-2" d="M1313.34,105.66l-48.74,215.43c-.67,1.37-1.73,2.21-3,2.99-3.94,2.41-53.82,8.36-61.27,8.36-2.26,0-4.34-.52-6.33-1.56l26.7-215.53c2.1-4.42,18.01-5.24,24-5.97,17.14-2.1,43.53-5.69,59.96-6.02,2.95-.06,6.02,1.13,8.68,2.3Z"/>
    <path class="cls-2" d="M1190.02,424.78c-5.25-3.27-.55-23.37-.3-28.7.38-8.13-2.04-28.74,4.08-33.89,2.36-1.99,49.92-8.61,56.93-9.04,3.31-.21,10.08-.97,12.07,1.86,2.54,3.62-.07,55.5-2.94,59.25-3.21,4.19-66.65,12.5-69.83,10.52Z"/>
  </g>
</svg>